# xmcd
#
# Track frame offsets: 
#        150
#        9199
#        19427
#        29502
#        38962
#        49792
#        59076
#        67728
#        76054
#        86274
#        94154
#        103449
#
# Disc length: 1517 seconds
#
# Revision: 0
# Processed by: cddbd v1.5.2PL0 Copyright (c) Steve Scherf et al.
# Submitted via: ExactAudioCopy v1.0b1
#
DISCID=9405eb0c
DTITLE=Charles Trent - The Sound Of A Bluegrass Banjo
DYEAR=1962
DGENRE=Bluegrass
TTITLE0=Camptown Races
TTITLE1=Home Sweet Home
TTITLE2=Jesse James
TTITLE3=Blue Moon Of Kentucky
TTITLE4=Maggie
TTITLE5=Old Joe Clark
TTITLE6=Cripple Creek
TTITLE7=Grandfather's Clock
TTITLE8=Bonaparte's Retreat
TTITLE9=Wildwood Flower
TTITLE10=John Henry
TTITLE11=Swanee River
EXTD=
EXTT0=
EXTT1=
EXTT2=
EXTT3=
EXTT4=
EXTT5=
EXTT6=
EXTT7=
EXTT8=
EXTT9=
EXTT10=
EXTT11=
PLAYORDER=
